<svg width="32" height="24" viewBox="0 0 32 24" fill="none" xmlns="http://www.w3.org/2000/svg">
<g clip-path="url(#clip0_261_3868)">
<rect width="32" height="24" rx="4" fill="#F93939"/>
<path d="M28.9524 0H3.04762C1.36447 0 0 1.43269 0 3.2V20.8C0 22.5673 1.36447 24 3.04762 24H28.9524C30.6355 24 32 22.5673 32 20.8V3.2C32 1.43269 30.6355 0 28.9524 0Z" fill="#F93939"/>
<path fill-rule="evenodd" clip-rule="evenodd" d="M8.37801 11.568L6.13801 12.8048L6.56468 10.1856L4.75439 8.32959L7.25801 7.95039L8.37801 5.56639L9.49649 7.95039L12.0001 8.32959L10.1868 10.1856L10.6165 12.8032L8.37801 11.568ZM13.7144 4.79999H15.2382V6.39999H13.7144V4.79999ZM15.2382 7.99999H16.762V9.59999H15.2382V7.99999ZM15.2382 11.2H16.762V12.8H15.2382V11.2ZM13.7144 14.4H15.2382V16H13.7144V14.4Z" fill="#FFDA2C"/>
</g>
<defs>
<clipPath id="clip0_261_3868">
<rect width="32" height="24" rx="4" fill="white"/>
</clipPath>
</defs>
</svg>
