<svg width="32" height="24" viewBox="0 0 32 24" fill="none" xmlns="http://www.w3.org/2000/svg">
<rect width="32" height="24" rx="4" fill="#3A99FF"/>
<path fill-rule="evenodd" clip-rule="evenodd" d="M21.3333 8V9.6H22.8571V8H21.3333ZM25.9047 8V9.6H27.4285V8H25.9047ZM18.2857 12.8V14.4H19.8095V12.8H18.2857ZM24.3809 14.4V16H25.9047V14.4H24.3809ZM18.2857 17.6V19.2H19.8095V17.6H18.2857ZM12.1904 16V17.6H13.7142V16H12.1904Z" fill="#FFDA2C"/>
<path d="M13.7144 1.6H3.04774C2.20616 1.6 1.52393 2.31634 1.52393 3.2V11.2C1.52393 12.0837 2.20616 12.8 3.04774 12.8H13.7144C14.556 12.8 15.2382 12.0837 15.2382 11.2V3.2C15.2382 2.31634 14.556 1.6 13.7144 1.6Z" fill="white"/>
<path fill-rule="evenodd" clip-rule="evenodd" d="M7.61928 8H3.04785V6.4H7.61928V3.2H9.14309V6.4H13.7145V8H9.14309V11.2H7.61928V8ZM11.4288 9.6V11.2H13.7145V9.6H11.4288ZM11.4288 3.2V4.8H13.7145V3.2H11.4288ZM3.04785 9.6V11.2H5.33357V9.6H3.04785ZM3.04785 3.2V4.8H5.33357V3.2H3.04785Z" fill="#F93939"/>
</svg>
