<svg width="32" height="24" viewBox="0 0 32 24" fill="none" xmlns="http://www.w3.org/2000/svg">
<g clip-path="url(#clip0_177_673)">
<rect width="32" height="24" rx="4" fill="#F93939"/>
<path fill-rule="evenodd" clip-rule="evenodd" d="M0 17.6H32V24H0V17.6Z" fill="#00B731"/>
<path fill-rule="evenodd" clip-rule="evenodd" d="M0 0H32V6.4H0V0Z" fill="#03BCDB"/>
<path fill-rule="evenodd" clip-rule="evenodd" d="M0 8.00001H32V16H0V8.00001ZM7.61905 6.26401C7.38133 6.35201 7.12381 6.40001 6.85714 6.40001C5.59543 6.40001 4.57143 5.32481 4.57143 4.00001C4.57143 2.67521 5.59543 1.60001 6.85714 1.60001C7.12381 1.60001 7.38133 1.64801 7.61905 1.73601C6.73067 2.06561 6.09524 2.95521 6.09524 4.00001C6.09524 5.04481 6.73067 5.93601 7.61905 6.26401Z" fill="white"/>
<path opacity="0.5" fill-rule="evenodd" clip-rule="evenodd" d="M9.14285 3.20001H10.6667V4.80001H9.14285V3.20001ZM10.6667 1.60001H12.1905V3.20001H10.6667V1.60001ZM12.1905 3.20001H13.7143V4.80001H12.1905V3.20001ZM13.7143 1.60001H15.2381V3.20001H13.7143V1.60001ZM15.2381 3.20001H16.7619V4.80001H15.2381V3.20001ZM13.7143 4.80001H15.2381V6.40001H13.7143V4.80001ZM10.6667 4.80001H12.1905V6.40001H10.6667V4.80001Z" fill="#1A47B8"/>
</g>
<defs>
<clipPath id="clip0_177_673">
<rect width="32" height="24" rx="4" fill="white"/>
</clipPath>
</defs>
</svg>
