<svg width="64" height="32" viewBox="0 0 64 32" fill="none" xmlns="http://www.w3.org/2000/svg">
<rect width="64" height="32" rx="16" fill="#1CA65C"/>
<path d="M23.7 8C26.87 8 29 10.98 29 13.76C29 19.39 20.16 24 20 24C19.84 24 11 19.39 11 13.76C11 10.98 13.13 8 16.3 8C18.12 8 19.31 8.91 20 9.71C20.69 8.91 21.88 8 23.7 8Z" fill="white" stroke="white" stroke-width="2" stroke-linecap="round" stroke-linejoin="round"/>
<path d="M37.6953 22H39.5391L44.4375 12.25V10.7266H36.7578V12.2109H42.6641V12.3281L37.6953 22ZM50.316 22.2109C51.1493 22.2109 51.8863 22.0729 52.5269 21.7969C53.1728 21.5208 53.6754 21.138 54.0347 20.6484C54.3993 20.1536 54.5816 19.5885 54.5816 18.9531V18.9375C54.5816 18.4635 54.4748 18.0286 54.2613 17.6328C54.053 17.237 53.7613 16.9036 53.3863 16.6328C53.0165 16.3568 52.5842 16.1667 52.0894 16.0625V16.0234C52.7196 15.8411 53.2248 15.5286 53.6051 15.0859C53.9853 14.6432 54.1754 14.1224 54.1754 13.5234V13.5078C54.1754 12.9297 54.0087 12.4167 53.6754 11.9688C53.3472 11.5208 52.8915 11.1667 52.3082 10.9062C51.7301 10.6458 51.066 10.5156 50.316 10.5156C49.566 10.5156 48.8993 10.6458 48.316 10.9062C47.7327 11.1667 47.2743 11.5208 46.941 11.9688C46.6129 12.4167 46.4488 12.9297 46.4488 13.5078V13.5234C46.4488 14.1224 46.6389 14.6432 47.0191 15.0859C47.4045 15.5286 47.9123 15.8411 48.5426 16.0234V16.0625C48.053 16.1667 47.6181 16.3568 47.2379 16.6328C46.8629 16.9036 46.5686 17.237 46.3551 17.6328C46.1467 18.0286 46.0426 18.4635 46.0426 18.9375V18.9531C46.0426 19.5885 46.2248 20.1536 46.5894 20.6484C46.954 21.138 47.4566 21.5208 48.0972 21.7969C48.7379 22.0729 49.4774 22.2109 50.316 22.2109ZM50.316 20.8047C49.8368 20.8047 49.4123 20.7214 49.0426 20.5547C48.6728 20.3828 48.3811 20.151 48.1676 19.8594C47.9592 19.5625 47.8551 19.224 47.8551 18.8438V18.8281C47.8551 18.4427 47.9592 18.1016 48.1676 17.8047C48.3759 17.5026 48.6649 17.2682 49.0347 17.1016C49.4045 16.9297 49.8316 16.8438 50.316 16.8438C50.7952 16.8438 51.2196 16.9297 51.5894 17.1016C51.9644 17.2682 52.2561 17.5026 52.4644 17.8047C52.6728 18.1016 52.7769 18.4427 52.7769 18.8281V18.8438C52.7769 19.224 52.6702 19.5625 52.4566 19.8594C52.2483 20.151 51.9592 20.3828 51.5894 20.5547C51.2196 20.7214 50.7952 20.8047 50.316 20.8047ZM50.316 15.4297C49.8941 15.4297 49.5243 15.3568 49.2066 15.2109C48.8889 15.0599 48.6389 14.8516 48.4566 14.5859C48.2795 14.3203 48.191 14.0182 48.191 13.6797V13.6641C48.191 13.3203 48.2795 13.0156 48.4566 12.75C48.6389 12.4844 48.8889 12.2786 49.2066 12.1328C49.5295 11.9818 49.8993 11.9062 50.316 11.9062C50.7327 11.9062 51.0998 11.9818 51.4176 12.1328C51.7353 12.2786 51.9827 12.4844 52.1597 12.75C52.342 13.0156 52.4332 13.3203 52.4332 13.6641V13.6797C52.4332 14.0182 52.3446 14.3203 52.1676 14.5859C51.9905 14.8516 51.7405 15.0599 51.4176 15.2109C51.0998 15.3568 50.7327 15.4297 50.316 15.4297Z" fill="white"/>
</svg>
